# xmcd
#
# Track frame offsets: 
#        150
#        14896
#        28767
#        40539
#        59483
#        77494
#        88476
#        102426
#        117525
#        131455
#        143377
#        145389
#        150132
#        160508
#
# Disc length: 2229 seconds
#
# Revision: 0
# Processed by: cddbd v1.5.2PL0 Copyright (c) Steve Scherf et al.
# Submitted via: ExactAudioCopy v1.0b3
#
DISCID=b308b30e
DTITLE=Ole Paus - Avslutningen
DYEAR=2013
DGENRE=Folk
TTITLE0=Abrakadabra
TTITLE1=På solsiden av vulkanen
TTITLE2=Bare stol på meg
TTITLE3=Sune
TTITLE4=Balladen om Bente L.
TTITLE5=For alltid
TTITLE6=Nytt land for gamle menn
TTITLE7=Reist
TTITLE8=Kom hjem
TTITLE9=Avslutningen
TTITLE10=Bonusspor: Introduksjon av bonusspor
TTITLE11=Bonusspor: Unnskyld at jeg bråkte
TTITLE12=Bonusspor: Broen
TTITLE13=Bonusspor: Men du va'kke der
EXTD=
EXTT0=
EXTT1=
EXTT2=
EXTT3=
EXTT4=
EXTT5=
EXTT6=
EXTT7=
EXTT8=
EXTT9=
EXTT10=
EXTT11=
EXTT12=
EXTT13=
PLAYORDER=
